<?xml version="1.0" encoding="UTF-8"?>
<svg id="IC" xmlns="http://www.w3.org/2000/svg" xmlns:xlink="http://www.w3.org/1999/xlink" viewBox="0 0 1048.84 662.18">
  <defs>
    <style>
      .cls-1 {
        opacity: .4;
      }

      .cls-1, .cls-2, .cls-3, .cls-4, .cls-5, .cls-6, .cls-7, .cls-8, .cls-9, .cls-10, .cls-11 {
        stroke-width: 0px;
      }

      .cls-1, .cls-5 {
        fill: #3c373d;
      }

      .cls-2 {
        fill: url(#_Áåçûìÿííûé_ãðàäèåíò_138);
      }

      .cls-3 {
        fill: #e4e0d5;
      }

      .cls-4 {
        fill: #d5cebe;
      }

      .cls-12 {
        isolation: isolate;
      }

      .cls-6 {
        fill: #b4b0a0;
      }

      .cls-7 {
        fill: #464047;
      }

      .cls-8 {
        fill: url(#_Áåçûìÿííûé_ãðàäèåíò_138-3);
      }

      .cls-9 {
        fill: url(#_Áåçûìÿííûé_ãðàäèåíò_138-2);
      }

      .cls-10 {
        fill: url(#_Áåçûìÿííûé_ãðàäèåíò_138-4);
      }

      .cls-11 {
        fill: #343135;
      }
    </style>
    <linearGradient id="_Áåçûìÿííûé_ãðàäèåíò_138" data-name="Áåçûìÿííûé ãðàäèåíò 138" x1="503.87" y1="427.63" x2="448.76" y2="523.08" gradientUnits="userSpaceOnUse">
      <stop offset="0" stop-color="#d5cebe"/>
      <stop offset=".09" stop-color="#d1cbbb"/>
      <stop offset=".15" stop-color="#c8c2b2"/>
      <stop offset=".21" stop-color="#b8b3a3"/>
      <stop offset=".22" stop-color="#b4b0a0"/>
      <stop offset=".45" stop-color="#b5b1a1"/>
      <stop offset=".53" stop-color="#bbb7a8"/>
      <stop offset=".58" stop-color="#c6c2b4"/>
      <stop offset=".63" stop-color="#d5d1c5"/>
      <stop offset=".66" stop-color="#e4e0d5"/>
    </linearGradient>
    <linearGradient id="_Áåçûìÿííûé_ãðàäèåíò_138-2" data-name="Áåçûìÿííûé ãðàäèåíò 138" x1="406.7" y1="371.52" x2="351.58" y2="466.98" xlink:href="#_Áåçûìÿííûé_ãðàäèåíò_138"/>
    <linearGradient id="_Áåçûìÿííûé_ãðàäèåíò_138-3" data-name="Áåçûìÿííûé ãðàäèåíò 138" x1="309.52" y1="315.42" x2="254.41" y2="410.88" xlink:href="#_Áåçûìÿííûé_ãðàäèåíò_138"/>
    <linearGradient id="_Áåçûìÿííûé_ãðàäèåíò_138-4" data-name="Áåçûìÿííûé ãðàäèåíò 138" x1="212.35" y1="259.32" x2="157.24" y2="354.77" xlink:href="#_Áåçûìÿííûé_ãðàäèåíò_138"/>
  </defs>
  <g>
    <g class="cls-12">
      <path class="cls-3" d="M706.9,342l-23.07,13.32c-.88.51-1.66.57-2.22.24l37.12,21.57c.56.33,1.34.27,2.22-.24l23.07-13.32-37.12-21.57Z"/>
      <path class="cls-6" d="M711.86,378.58l-.11-39.03c0-2.42-.86-4.12-2.23-4.92l-37.12-21.57c1.37.8,2.23,2.5,2.23,4.92l.11,39.03c0,2.88,1.01,4.9,2.64,5.84l37.12,21.57c-1.62-.95-2.63-2.96-2.64-5.84Z"/>
      <path class="cls-3" d="M676.63,305.77c-2.48-1.44-5.92-1.24-9.71.95l-19.91,11.49,37.12,21.57,19.91-11.49c3.79-2.19,7.23-2.39,9.71-.95l-37.12-21.57Z"/>
      <path class="cls-4" d="M744.02,363.57l-23.07,13.32c-1.75,1.01-3.1.24-3.1-1.77l-.11-39.03c-.03-8.66-6.16-12.16-13.7-7.81l-19.91,11.49.02,6.88,19.91-11.49c4.24-2.45,7.68-.48,7.69,4.38l.11,39.03c.02,5.79,4.07,8.1,9.11,5.19l23.07-13.32-.02-6.88Z"/>
      <polygon class="cls-6" points="684.13 339.79 647.01 318.21 647.03 325.09 684.15 346.66 684.13 339.79"/>
    </g>
    <g class="cls-12">
      <path class="cls-3" d="M609.73,285.9l-23.07,13.32c-.88.51-1.66.57-2.22.24l37.12,21.57c.56.32,1.34.27,2.22-.24l23.07-13.32-37.12-21.57Z"/>
      <path class="cls-6" d="M614.69,322.48l-.11-39.03c0-2.42-.86-4.12-2.24-4.92l-37.12-21.57c1.38.8,2.23,2.5,2.24,4.92l.11,39.03c0,2.88,1.01,4.9,2.64,5.84l37.12,21.57c-1.62-.95-2.63-2.96-2.64-5.84Z"/>
      <path class="cls-3" d="M579.46,249.67c-2.48-1.44-5.92-1.24-9.71.95l-19.91,11.49,37.12,21.57,19.91-11.49c3.79-2.19,7.23-2.39,9.71-.95l-37.12-21.57Z"/>
      <path class="cls-4" d="M646.85,307.47l-23.07,13.32c-1.75,1.01-3.1.24-3.1-1.77l-.11-39.03c-.03-8.65-6.16-12.15-13.7-7.81l-19.91,11.49.02,6.88,19.91-11.49c4.24-2.45,7.68-.48,7.69,4.38l.11,39.03c.02,5.79,4.07,8.1,9.11,5.19l23.07-13.32-.02-6.88Z"/>
      <polygon class="cls-6" points="586.96 283.68 549.84 262.11 549.86 268.99 586.98 290.56 586.96 283.68"/>
    </g>
    <g class="cls-12">
      <path class="cls-3" d="M512.55,229.8l-23.07,13.32c-.88.51-1.66.57-2.22.24l37.12,21.57c.56.32,1.34.27,2.22-.24l23.07-13.32-37.12-21.57Z"/>
      <path class="cls-6" d="M517.52,266.37l-.11-39.03c0-2.42-.86-4.12-2.24-4.92l-37.12-21.57c1.38.8,2.23,2.5,2.24,4.92l.11,39.03c0,2.88,1.01,4.9,2.64,5.84l37.12,21.57c-1.63-.95-2.63-2.96-2.64-5.84Z"/>
      <path class="cls-3" d="M482.29,193.57c-2.48-1.44-5.92-1.24-9.71.95l-19.91,11.49,37.12,21.57,19.91-11.49c3.79-2.19,7.23-2.39,9.71-.95l-37.12-21.57Z"/>
      <path class="cls-4" d="M549.67,251.37l-23.07,13.32c-1.75,1.01-3.1.24-3.1-1.77l-.11-39.03c-.03-8.66-6.16-12.16-13.7-7.81l-19.91,11.49.02,6.88,19.91-11.49c4.24-2.45,7.68-.48,7.69,4.38l.11,39.03c.02,5.79,4.07,8.1,9.11,5.19l23.07-13.32-.02-6.88Z"/>
      <polygon class="cls-6" points="489.79 227.58 452.67 206.01 452.69 212.89 489.81 234.46 489.79 227.58"/>
    </g>
    <g class="cls-12">
      <path class="cls-3" d="M415.38,173.69l-23.07,13.32c-.88.51-1.66.57-2.22.24l37.12,21.57c.56.32,1.34.27,2.22-.24l23.07-13.32-37.12-21.57Z"/>
      <path class="cls-6" d="M420.34,210.27l-.11-39.03c0-2.42-.86-4.12-2.24-4.92l-37.12-21.57c1.38.8,2.23,2.5,2.24,4.92l.11,39.03c0,2.88,1.01,4.9,2.64,5.84l37.12,21.57c-1.63-.95-2.63-2.96-2.64-5.84Z"/>
      <path class="cls-3" d="M385.11,137.46c-2.48-1.44-5.92-1.24-9.71.95l-19.91,11.49,37.12,21.57,19.91-11.49c3.79-2.19,7.23-2.39,9.71-.95l-37.12-21.57Z"/>
      <path class="cls-4" d="M452.5,195.26l-23.07,13.32c-1.75,1.01-3.1.24-3.1-1.77l-.11-39.03c-.02-8.66-6.16-12.15-13.7-7.81l-19.91,11.49.02,6.88,19.91-11.49c4.24-2.45,7.68-.49,7.69,4.38l.11,39.03c.02,5.8,4.07,8.1,9.11,5.19l23.07-13.32-.02-6.88Z"/>
      <polygon class="cls-6" points="392.61 171.48 355.49 149.9 355.51 156.78 392.63 178.35 392.61 171.48"/>
    </g>
  </g>
  <g id="Axonometric_Cube" data-name="Axonometric Cube">
    <polygon id="Cube_face_-_top" data-name="Cube face - top" class="cls-11" points="705.66 364.5 325.09 144.78 162.96 238.38 543.53 458.11 705.66 364.5"/>
    <polygon id="Cube_face_-_left" data-name="Cube face - left" class="cls-11" points="543.53 488.69 162.96 268.96 162.96 238.38 543.53 458.11 543.53 488.69"/>
    <polygon id="Cube_face_-_right" data-name="Cube face - right" class="cls-5" points="705.66 395.08 543.53 488.69 543.53 458.11 705.66 364.5 705.66 395.08"/>
  </g>
  <g>
    <g class="cls-12">
      <polygon class="cls-6" points="472.53 520.32 435.41 498.75 435.43 505.63 472.55 527.2 472.53 520.32"/>
      <path class="cls-2" d="M494.96,406l-19.91,11.49c-7.53,4.35-13.63,14.91-13.61,23.57l.11,39.03c0,2.01-1.33,4.33-3.08,5.34l-23.07,13.32,37.12,21.57,23.07-13.32c1.75-1.01,3.09-3.33,3.08-5.34l-.11-39.03c-.03-8.66,6.08-19.22,13.61-23.57l19.91-11.49-37.12-21.57Z"/>
      <path class="cls-4" d="M532.08,427.57l-19.91,11.49c-7.53,4.35-13.63,14.92-13.61,23.57l.11,39.03c0,2.01-1.33,4.33-3.08,5.34l-23.07,13.32.02,6.88,23.07-13.32c5.04-2.91,9.07-9.88,9.05-15.67l-.11-39.03c-.01-4.87,3.41-10.79,7.64-13.24l19.91-11.49-.02-6.88Z"/>
    </g>
    <g class="cls-12">
      <polygon class="cls-6" points="375.35 464.22 338.23 442.64 338.25 449.52 375.37 471.09 375.35 464.22"/>
      <path class="cls-9" d="M397.79,349.9l-19.91,11.49c-7.53,4.35-13.63,14.92-13.61,23.57l.11,39.03c0,2.01-1.33,4.33-3.08,5.34l-23.07,13.32,37.12,21.57,23.07-13.32c1.75-1.01,3.09-3.33,3.08-5.34l-.11-39.03c-.03-8.66,6.08-19.22,13.61-23.57l19.91-11.49-37.12-21.57Z"/>
      <path class="cls-4" d="M434.91,371.47l-19.91,11.49c-7.53,4.35-13.63,14.91-13.61,23.57l.11,39.03c0,2.01-1.33,4.33-3.08,5.34l-23.07,13.32.02,6.88,23.07-13.32c5.04-2.91,9.07-9.88,9.05-15.67l-.11-39.03c-.01-4.87,3.4-10.79,7.64-13.24l19.91-11.49-.02-6.88Z"/>
    </g>
    <g class="cls-12">
      <polygon class="cls-6" points="278.18 408.11 241.06 386.54 241.08 393.42 278.2 414.99 278.18 408.11"/>
      <path class="cls-8" d="M300.62,293.79l-19.91,11.49c-7.53,4.35-13.63,14.92-13.61,23.57l.11,39.03c0,2.01-1.33,4.33-3.08,5.34l-23.07,13.32,37.12,21.57,23.07-13.32c1.75-1.01,3.09-3.33,3.08-5.34l-.11-39.03c-.03-8.66,6.08-19.22,13.61-23.57l19.91-11.49-37.12-21.57Z"/>
      <path class="cls-4" d="M337.74,315.36l-19.91,11.49c-7.53,4.35-13.63,14.92-13.61,23.57l.11,39.03c0,2.01-1.33,4.33-3.08,5.34l-23.07,13.32.02,6.88,23.07-13.32c5.04-2.91,9.07-9.88,9.05-15.67l-.11-39.03c-.01-4.87,3.4-10.79,7.64-13.24l19.91-11.49-.02-6.88Z"/>
    </g>
    <g class="cls-12">
      <polygon class="cls-6" points="181.01 352.01 143.89 330.44 143.91 337.32 181.03 358.89 181.01 352.01"/>
      <path class="cls-10" d="M203.44,237.69l-19.91,11.49c-7.53,4.35-13.63,14.91-13.61,23.57l.11,39.03c0,2.01-1.33,4.33-3.08,5.34l-23.07,13.32,37.12,21.57,23.07-13.32c1.75-1.01,3.09-3.33,3.08-5.34l-.11-39.03c-.03-8.66,6.08-19.22,13.61-23.57l19.91-11.49-37.12-21.57Z"/>
      <path class="cls-4" d="M240.56,259.26l-19.91,11.49c-7.53,4.35-13.63,14.92-13.61,23.57l.11,39.03c0,2.01-1.33,4.33-3.08,5.34l-23.07,13.32.02,6.88,23.07-13.32c5.04-2.91,9.07-9.88,9.05-15.67l-.11-39.03c-.01-4.87,3.41-10.79,7.64-13.24l19.91-11.49-.02-6.88Z"/>
    </g>
  </g>
  <g id="Axonometric_Cube-2" data-name="Axonometric Cube">
    <polygon id="Cube_face_-_top-2" data-name="Cube face - top" class="cls-7" points="705.66 287.31 325.09 67.58 162.96 161.19 543.53 380.91 705.66 287.31"/>
    <polygon id="Cube_face_-_left-2" data-name="Cube face - left" class="cls-11" points="543.53 451.71 162.96 231.99 162.96 161.19 543.53 380.91 543.53 451.71"/>
    <polygon id="Cube_face_-_right-2" data-name="Cube face - right" class="cls-5" points="705.66 358.1 543.53 451.71 543.53 380.91 705.66 287.31 705.66 358.1"/>
  </g>
  <g>
    <path id="Cylinder_face" data-name="Cylinder face" class="cls-1" d="M369.71,185.57c-23.29,13.45-61.05,13.45-84.34,0-23.29-13.45-23.29-35.25,0-48.69,23.29-13.45,61.05-13.45,84.34,0,23.29,13.45,23.29,35.25,0,48.69Z"/>
    <path class="cls-5" d="M285.37,140.25c23.29-13.45,61.05-13.45,84.34,0,10.9,6.29,16.49,14.42,17.19,22.66.79-9.37-4.8-18.88-17.19-26.03-23.29-13.45-61.05-13.45-84.34,0-12.39,7.15-17.98,16.66-17.19,26.03.7-8.24,6.29-16.37,17.19-22.66Z"/>
  </g>
</svg>